<svg width="708" height="170" viewBox="0 0 708 170" fill="none" xmlns="http://www.w3.org/2000/svg">
<rect width="708" height="170" fill="white"/>
<path d="M43.369 167C36.127 152.8 28.743 136.186 21.217 117.158C13.833 98.13 6.804 77.398 0.13 54.962H33.784C35.204 60.5 36.837 66.535 38.683 73.067C40.671 79.457 42.659 85.989 44.647 92.663C46.777 99.195 48.836 105.585 50.824 111.833C52.954 118.081 55.013 123.761 57.001 128.873C58.847 123.761 60.835 118.081 62.965 111.833C65.095 105.585 67.154 99.195 69.142 92.663C71.272 85.989 73.26 79.457 75.106 73.067C77.094 66.535 78.798 60.5 80.218 54.962H113.02C106.346 77.398 99.246 98.13 91.72 117.158C84.336 136.186 77.023 152.8 69.781 167H43.369ZM111.131 111.833C111.131 101.893 112.622 93.231 115.604 85.847C118.728 78.321 122.775 72.073 127.745 67.103C132.715 62.133 138.395 58.37 144.785 55.814C151.317 53.258 157.991 51.98 164.807 51.98C180.711 51.98 193.278 56.879 202.508 66.677C211.738 76.333 216.353 90.604 216.353 109.49C216.353 111.336 216.282 113.395 216.14 115.667C215.998 117.797 215.856 119.714 215.714 121.418H143.72C144.43 127.95 147.483 133.133 152.879 136.967C158.275 140.801 165.517 142.718 174.605 142.718C180.427 142.718 186.107 142.221 191.645 141.227C197.325 140.091 201.94 138.742 205.49 137.18L209.75 162.953C208.046 163.805 205.774 164.657 202.934 165.509C200.094 166.361 196.899 167.071 193.349 167.639C189.941 168.349 186.249 168.917 182.273 169.343C178.297 169.769 174.321 169.982 170.345 169.982C160.263 169.982 151.459 168.491 143.933 165.509C136.549 162.527 130.372 158.48 125.402 153.368C120.574 148.114 116.953 141.937 114.539 134.837C112.267 127.737 111.131 120.069 111.131 111.833ZM185.681 99.692C185.539 96.994 185.042 94.367 184.19 91.811C183.48 89.255 182.273 86.983 180.569 84.995C179.007 83.007 176.948 81.374 174.392 80.096C171.978 78.818 168.925 78.179 165.233 78.179C161.683 78.179 158.63 78.818 156.074 80.096C153.518 81.232 151.388 82.794 149.684 84.782C147.98 86.77 146.631 89.113 145.637 91.811C144.785 94.367 144.146 96.994 143.72 99.692H185.681ZM229.13 27.059L260.867 21.947V54.962H298.994V81.374H260.867V120.779C260.867 127.453 262.003 132.778 264.275 136.754C266.689 140.73 271.446 142.718 278.546 142.718C281.954 142.718 285.433 142.434 288.983 141.866C292.675 141.156 296.012 140.233 298.994 139.097L303.467 163.805C299.633 165.367 295.373 166.716 290.687 167.852C286.001 168.988 280.25 169.556 273.434 169.556C264.772 169.556 257.601 168.42 251.921 166.148C246.241 163.734 241.697 160.468 238.289 156.35C234.881 152.09 232.467 146.978 231.047 141.014C229.769 135.05 229.13 128.447 229.13 121.205V27.059ZM358.919 169.13C349.689 168.988 342.163 167.994 336.341 166.148C330.661 164.302 326.117 161.746 322.709 158.48C319.443 155.072 317.171 151.025 315.893 146.339C314.757 141.511 314.189 136.115 314.189 130.151V6.82399L345.926 1.712V123.761C345.926 126.601 346.139 129.157 346.565 131.429C346.991 133.701 347.772 135.618 348.908 137.18C350.186 138.742 351.961 140.02 354.233 141.014C356.505 142.008 359.558 142.647 363.392 142.931L358.919 169.13ZM402.67 167H370.933V54.962H402.67V167ZM405.652 22.586C405.652 28.408 403.735 33.023 399.901 36.431C396.209 39.697 391.807 41.33 386.695 41.33C381.583 41.33 377.11 39.697 373.276 36.431C369.584 33.023 367.738 28.408 367.738 22.586C367.738 16.764 369.584 12.22 373.276 8.95399C377.11 5.54599 381.583 3.84199 386.695 3.84199C391.807 3.84199 396.209 5.54599 399.901 8.95399C403.735 12.22 405.652 16.764 405.652 22.586ZM421.853 58.796C427.249 57.234 434.207 55.814 442.727 54.536C451.247 53.116 460.193 52.406 469.565 52.406C479.079 52.406 486.96 53.684 493.208 56.24C499.598 58.654 504.639 62.133 508.331 66.677C512.023 71.221 514.65 76.617 516.212 82.865C517.774 89.113 518.555 96.071 518.555 103.739V167H486.818V107.573C486.818 97.349 485.469 90.107 482.771 85.847C480.073 81.587 475.032 79.457 467.648 79.457C465.376 79.457 462.962 79.599 460.406 79.883C457.85 80.025 455.578 80.238 453.59 80.522V167H421.853V58.796ZM568.369 95.432C571.493 92.024 574.688 88.474 577.954 84.782C581.362 81.09 584.628 77.469 587.752 73.919C590.876 70.227 593.787 66.748 596.485 63.482C599.325 60.216 601.739 57.376 603.727 54.962H641.428C633.902 63.624 626.518 71.931 619.276 79.883C612.176 87.693 604.366 95.787 595.846 104.165C600.106 107.999 604.508 112.614 609.052 118.01C613.596 123.264 617.998 128.731 622.258 134.411C626.518 140.091 630.423 145.771 633.973 151.451C637.523 157.131 640.505 162.314 642.919 167H606.496C604.224 163.308 601.597 159.261 598.615 154.859C595.775 150.315 592.722 145.842 589.456 141.44C586.19 136.896 582.711 132.565 579.019 128.447C575.469 124.329 571.919 120.85 568.369 118.01V167H536.632V6.82399L568.369 1.712V95.432ZM672.974 0.646996C677.518 0.646996 681.849 1.42799 685.967 2.98999C690.227 4.40999 693.919 6.61099 697.043 9.593C700.167 12.433 702.652 15.912 704.498 20.03C706.344 24.006 707.267 28.55 707.267 33.662C707.267 38.774 706.344 43.389 704.498 47.507C702.652 51.483 700.167 54.962 697.043 57.944C693.919 60.784 690.227 62.985 685.967 64.547C681.849 65.967 677.518 66.677 672.974 66.677C668.43 66.677 664.028 65.967 659.768 64.547C655.65 62.985 652.029 60.784 648.905 57.944C645.781 54.962 643.296 51.483 641.45 47.507C639.604 43.389 638.681 38.774 638.681 33.662C638.681 28.55 639.604 24.006 641.45 20.03C643.296 15.912 645.781 12.433 648.905 9.593C652.029 6.61099 655.65 4.40999 659.768 2.98999C664.028 1.42799 668.43 0.646996 672.974 0.646996ZM672.974 45.803C675.956 45.803 678.654 44.738 681.068 42.608C683.482 40.336 684.689 37.354 684.689 33.662C684.689 29.97 683.482 27.059 681.068 24.929C678.654 22.657 675.956 21.521 672.974 21.521C669.992 21.521 667.294 22.657 664.88 24.929C662.466 27.059 661.259 29.97 661.259 33.662C661.259 37.354 662.466 40.336 664.88 42.608C667.294 44.738 669.992 45.803 672.974 45.803Z" fill="#484444"/>
</svg>
